<svg width="198" height="43" viewBox="0 0 198 43" fill="none" xmlns="http://www.w3.org/2000/svg">
<path d="M23.996 11.844V31.5H19.208V19.712L14.812 31.5H10.948L6.524 19.684V31.5H1.736V11.844H7.392L12.908 25.452L18.368 11.844H23.996ZM30.4071 14.252C29.5671 14.252 28.8765 14.0093 28.3351 13.524C27.8125 13.02 27.5511 12.404 27.5511 11.676C27.5511 10.9293 27.8125 10.3133 28.3351 9.828C28.8765 9.324 29.5671 9.072 30.4071 9.072C31.2285 9.072 31.9005 9.324 32.4231 9.828C32.9645 10.3133 33.2351 10.9293 33.2351 11.676C33.2351 12.404 32.9645 13.02 32.4231 13.524C31.9005 14.0093 31.2285 14.252 30.4071 14.252ZM32.7871 15.876V31.5H27.9991V15.876H32.7871ZM46.3369 15.708C48.1663 15.708 49.6223 16.3053 50.7049 17.5C51.8063 18.676 52.3569 20.3 52.3569 22.372V31.5H47.5969V23.016C47.5969 21.9707 47.3263 21.1587 46.7849 20.58C46.2436 20.0013 45.5156 19.712 44.6009 19.712C43.6863 19.712 42.9583 20.0013 42.4169 20.58C41.8756 21.1587 41.6049 21.9707 41.6049 23.016V31.5H36.8169V15.876H41.6049V17.948C42.0903 17.2573 42.7436 16.716 43.5649 16.324C44.3863 15.9133 45.3103 15.708 46.3369 15.708ZM55.2921 23.66C55.2921 22.0547 55.5908 20.6453 56.1881 19.432C56.8041 18.2187 57.6348 17.2853 58.6801 16.632C59.7255 15.9787 60.8921 15.652 62.1801 15.652C63.2068 15.652 64.1401 15.8667 64.9801 16.296C65.8388 16.7253 66.5108 17.304 66.9961 18.032V10.78H71.7841V31.5H66.9961V29.26C66.5481 30.0067 65.9041 30.604 65.0641 31.052C64.2428 31.5 63.2815 31.724 62.1801 31.724C60.8921 31.724 59.7255 31.3973 58.6801 30.744C57.6348 30.072 56.8041 29.1293 56.1881 27.916C55.5908 26.684 55.2921 25.2653 55.2921 23.66ZM66.9961 23.688C66.9961 22.4933 66.6601 21.5507 65.9881 20.86C65.3348 20.1693 64.5321 19.824 63.5801 19.824C62.6281 19.824 61.8161 20.1693 61.1441 20.86C60.4908 21.532 60.1641 22.4653 60.1641 23.66C60.1641 24.8547 60.4908 25.8067 61.1441 26.516C61.8161 27.2067 62.6281 27.552 63.5801 27.552C64.5321 27.552 65.3348 27.2067 65.9881 26.516C66.6601 25.8253 66.9961 24.8827 66.9961 23.688ZM92.832 11.844V31.5H88.044V23.408H80.596V31.5H75.808V11.844H80.596V19.544H88.044V11.844H92.832ZM111.577 23.436C111.577 23.884 111.549 24.3507 111.493 24.836H100.657C100.731 25.8067 101.039 26.5533 101.581 27.076C102.141 27.58 102.822 27.832 103.625 27.832C104.819 27.832 105.65 27.328 106.117 26.32H111.213C110.951 27.3467 110.475 28.2707 109.785 29.092C109.113 29.9133 108.263 30.5573 107.237 31.024C106.21 31.4907 105.062 31.724 103.793 31.724C102.262 31.724 100.899 31.3973 99.7045 30.744C98.5098 30.0907 97.5765 29.1573 96.9045 27.944C96.2325 26.7307 95.8965 25.312 95.8965 23.688C95.8965 22.064 96.2232 20.6453 96.8765 19.432C97.5485 18.2187 98.4818 17.2853 99.6765 16.632C100.871 15.9787 102.243 15.652 103.793 15.652C105.305 15.652 106.649 15.9693 107.825 16.604C109.001 17.2387 109.915 18.144 110.569 19.32C111.241 20.496 111.577 21.868 111.577 23.436ZM106.677 22.176C106.677 21.3547 106.397 20.7013 105.837 20.216C105.277 19.7307 104.577 19.488 103.737 19.488C102.934 19.488 102.253 19.7213 101.693 20.188C101.151 20.6547 100.815 21.3173 100.685 22.176H106.677ZM113.71 23.66C113.71 22.0547 114.009 20.6453 114.606 19.432C115.222 18.2187 116.053 17.2853 117.098 16.632C118.144 15.9787 119.31 15.652 120.598 15.652C121.7 15.652 122.661 15.876 123.482 16.324C124.322 16.772 124.966 17.36 125.414 18.088V15.876H130.202V31.5H125.414V29.288C124.948 30.016 124.294 30.604 123.454 31.052C122.633 31.5 121.672 31.724 120.57 31.724C119.301 31.724 118.144 31.3973 117.098 30.744C116.053 30.072 115.222 29.1293 114.606 27.916C114.009 26.684 113.71 25.2653 113.71 23.66ZM125.414 23.688C125.414 22.4933 125.078 21.5507 124.406 20.86C123.753 20.1693 122.95 19.824 121.998 19.824C121.046 19.824 120.234 20.1693 119.562 20.86C118.909 21.532 118.582 22.4653 118.582 23.66C118.582 24.8547 118.909 25.8067 119.562 26.516C120.234 27.2067 121.046 27.552 121.998 27.552C122.95 27.552 123.753 27.2067 124.406 26.516C125.078 25.8253 125.414 24.8827 125.414 23.688ZM139.014 10.78V31.5H134.226V10.78H139.014ZM151.752 27.44V31.5H149.316C147.58 31.5 146.227 31.08 145.256 30.24C144.285 29.3813 143.8 27.9907 143.8 26.068V19.852H141.896V15.876H143.8V12.068H148.588V15.876H151.724V19.852H148.588V26.124C148.588 26.5907 148.7 26.9267 148.924 27.132C149.148 27.3373 149.521 27.44 150.044 27.44H151.752ZM170.939 15.876L161.139 38.92H155.987L159.571 30.968L153.215 15.876H158.563L162.175 25.648L165.759 15.876H170.939Z" fill="#002B5B"/>
<circle cx="174.5" cy="30.5" r="4.5" fill="#159895"/>
</svg>
